<svg id="visual" viewBox="0 0 960 540" width="960" height="540" xmlns="http://www.w3.org/2000/svg" xmlns:xlink="http://www.w3.org/1999/xlink" version="1.1"><rect x="0" y="0" width="960" height="540" fill="#ECE5C7"></rect><path d="M0 345L22.8 350.2C45.7 355.3 91.3 365.7 137 373.5C182.7 381.3 228.3 386.7 274 383.3C319.7 380 365.3 368 411.2 377.5C457 387 503 418 548.8 425C594.7 432 640.3 415 686 391.7C731.7 368.3 777.3 338.7 823 342.8C868.7 347 914.3 385 937.2 404L960 423L960 541L937.2 541C914.3 541 868.7 541 823 541C777.3 541 731.7 541 686 541C640.3 541 594.7 541 548.8 541C503 541 457 541 411.2 541C365.3 541 319.7 541 274 541C228.3 541 182.7 541 137 541C91.3 541 45.7 541 22.8 541L0 541Z" fill="#116A7B" stroke-linecap="round" stroke-linejoin="miter"></path></svg>